<?xml version="1.0" encoding="UTF-8"?>
<svg width="21px" height="20px" viewBox="0 0 21 20" version="1.1" xmlns="http://www.w3.org/2000/svg" xmlns:xlink="http://www.w3.org/1999/xlink">
    <!-- Generator: Sketch 43.2 (39069) - http://www.bohemiancoding.com/sketch -->
    <title>1495212815_meetup-logo</title>
    <desc>Created with Sketch.</desc>
    <defs></defs>
    <g id="Home" stroke="none" stroke-width="1" fill="none" fill-rule="evenodd" opacity="0.889775815">
        <g transform="translate(-560.000000, -1490.000000)" id="Footer" fill-rule="nonzero">
            <g transform="translate(1.000000, 1459.000000)">
                <g id="Social" transform="translate(279.000000, 31.000000)">
                    <g id="Meetup" transform="translate(200.000000, 0.000000)">
                        <g id="1495212815_meetup-logo" transform="translate(80.000000, 0.000000)">
                            <path d="M17.9376427,12.8467331 C17.939267,14.6598008 16.6408716,16.2216733 14.8752884,16.5287649 C14.6529859,16.5671315 14.4285044,16.5898406 14.2029135,16.5876892 C14.126845,16.5868526 14.0969722,16.6174502 14.0728442,16.6875299 C13.7203535,17.7052191 13.0169173,18.3118725 11.9542949,18.4648606 C11.2513341,18.5659761 10.6134278,18.3764143 10.0542446,17.9344622 C9.97635352,17.8728685 9.92873143,17.8718327 9.84751238,17.9301992 C9.19348114,18.4005976 8.46017219,18.6089243 7.659392,18.5602789 C6.09677714,18.4654183 4.78197943,17.2644223 4.53602438,15.7157371 C4.51910705,15.6086853 4.50112,15.5008367 4.49949562,15.3929482 C4.49787124,15.3032271 4.46399695,15.2686056 4.37877638,15.2518327 C3.90568533,15.1590837 3.47637333,14.9631474 3.09761524,14.6650199 C2.40055771,14.1162151 1.98233905,13.3996414 1.88499505,12.5132669 C1.77398248,11.4987649 2.08558629,10.6215936 2.79524267,9.89063745 C2.85245257,9.83199203 2.85601829,9.79115538 2.81699352,9.72219124 C2.54417676,9.24322709 2.41486019,8.72446215 2.43585829,8.17434263 C2.48823467,6.80139442 3.43829943,5.66709163 4.75979276,5.38625498 C4.91268267,5.35358566 4.992832,5.29330677 5.0600259,5.14760956 C5.71183848,3.73545817 6.80627505,2.87661355 8.324992,2.59334661 C9.39110095,2.39438247 10.3968305,2.60741036 11.3300968,3.15940239 C11.4085425,3.20593625 11.4742309,3.20968127 11.5591345,3.18482072 C13.0414019,2.7523506 14.354813,3.06697211 15.4698514,4.13314741 C16.1292709,4.76350598 16.490557,5.5612749 16.5975284,6.47139442 C16.6209432,6.67035857 16.6316008,6.87119522 16.6165455,7.07123506 C16.61088,7.14689243 16.6340175,7.1785259 16.7052526,7.20501992 C17.3734674,7.45374502 17.834237,7.91756972 18.0358187,8.6036255 C18.2868846,9.45701195 18.0759924,10.2053386 17.4418499,10.8275697 C17.3868983,10.8815936 17.3985067,10.9146614 17.4296472,10.9686454 C17.7647848,11.549243 17.9383954,12.1741833 17.9376427,12.8467331 Z M11.3236785,12.5556175 C11.3242331,13.3270518 11.8166979,14.0088845 12.5150629,14.2405578 C12.8650575,14.3567729 13.2260663,14.4119124 13.5925029,14.4281275 C13.8541074,14.4394821 14.1152762,14.4211155 14.356992,14.2999602 C14.5470446,14.2045418 14.6365836,14.0469323 14.6279863,13.8369323 C14.619389,13.6255378 14.5252541,13.4674502 14.3241874,13.3833068 C14.2542994,13.3541036 14.1833417,13.3303187 14.1091352,13.3173705 C13.8873478,13.2775697 13.6644907,13.2440637 13.4438126,13.2000797 C13.0795947,13.1271315 12.9268632,12.9332669 12.9220297,12.5629084 C12.9177905,12.2352988 13.0061806,11.9262948 13.1064168,11.6205976 C13.2897737,11.0610359 13.5369966,10.5277291 13.7739185,9.99003984 C14.0026392,9.47079681 14.2424137,8.95581673 14.4039802,8.4089243 C14.4929646,8.10860558 14.5354362,7.80749004 14.4545341,7.49689243 C14.3313981,7.02545817 14.0504594,6.70948207 13.5660373,6.61860558 C13.1225417,6.53561753 12.6811063,6.5261753 12.2800427,6.79215139 C12.146685,6.88027888 12.0184381,6.85920319 11.9026712,6.75645418 C11.8142415,6.67832669 11.7300907,6.59561753 11.643523,6.51533865 C11.2344168,6.13553785 10.6935375,6.11689243 10.2543208,6.46374502 C10.0771048,6.60374502 9.92797867,6.77733068 9.73546971,6.89896414 C9.56344381,7.00760956 9.38999162,7.03840637 9.19950324,6.93625498 C9.018048,6.8389243 8.83017448,6.75326693 8.64277638,6.66784861 C8.45296152,6.58163347 8.26908952,6.47513944 8.055424,6.45701195 C7.37960229,6.39916335 6.67236267,6.80302789 6.37422933,7.41693227 C6.24194133,7.68860558 6.13393981,7.97083665 6.03152457,8.2549004 C5.55863162,9.56812749 5.17345524,10.9094422 4.77480838,12.2461355 C4.59628495,12.8443825 4.80697905,13.4330677 5.31073524,13.7561753 C5.70375619,14.0080478 6.13409829,14.0703187 6.57961448,13.9356972 C6.940544,13.8264542 7.13820343,13.5343028 7.27635505,13.2060956 C7.73546057,12.1172908 8.14892495,11.01 8.58655695,9.9125498 C8.70699886,9.61055777 8.82359771,9.30729084 8.95136914,9.00856574 C9.08036876,8.70693227 9.45104457,8.60418327 9.67093029,8.80422311 C9.80515962,8.92633466 9.84053943,9.08888446 9.8273859,9.26266932 C9.81292495,9.44840637 9.74137295,9.61972112 9.67417905,9.79031873 C9.38943695,10.5142231 9.09942552,11.2360159 8.81341562,11.9593625 C8.75561143,12.1056574 8.69297371,12.250757 8.66741943,12.4077689 C8.62364038,12.6773705 8.72977981,12.9163347 8.94907124,13.0114343 C9.1728,13.1085259 9.40504686,13.124741 9.63697676,13.0400797 C9.90686171,12.9417131 10.0681509,12.729243 10.1923962,12.483745 C10.6192914,11.6407171 11.0428983,10.7956175 11.4695162,9.9525498 C11.6665813,9.56306773 11.8670933,9.17541833 12.0683977,8.78824701 C12.1431985,8.64474104 12.2308358,8.50876494 12.3705722,8.41956175 C12.4967192,8.33928287 12.6326522,8.33330677 12.7619688,8.40633466 C12.8881554,8.47741036 12.8965943,8.60721116 12.8912853,8.73533865 C12.8883931,8.80422311 12.8692175,8.87155378 12.8428709,8.93561753 C12.7875627,9.06884462 12.7358994,9.20406375 12.6745691,9.33466135 C12.319741,10.0852988 11.9595246,10.8330279 11.6078659,11.5852988 C11.459651,11.9027888 11.3053745,12.2217928 11.3236785,12.5556175 Z M16.3007817,18.0876892 C16.3016137,17.589761 15.8865646,17.1734263 15.387325,17.1720717 C14.8757638,17.1701992 14.4607543,17.5818725 14.4585356,18.0925498 C14.4563962,18.591753 14.8784975,19.0153386 15.3776579,19.0159761 C15.8838705,19.016494 16.2999893,18.5980876 16.3007817,18.0876892 Z M0.868885333,10.4573705 C1.350336,10.4584462 1.75544076,10.0537849 1.75353905,9.57398406 C1.75136,9.09338645 1.35489219,8.6949004 0.877482667,8.69354582 C0.388187429,8.69223108 -0.000277333333,9.08258964 1.12604094e-15,9.57537849 C0.000396190476,10.062988 0.387712,10.4562948 0.868885333,10.4573705 Z M11.6495055,0.588286853 C11.1656381,0.585577689 10.7712701,0.974581673 10.7685364,1.45681275 C10.7656046,1.9385259 11.1585859,2.33430279 11.6400366,2.33482072 C12.1195855,2.3350996 12.5047619,1.94880478 12.5056335,1.46625498 C12.5067825,0.981354582 12.1258453,0.590717131 11.6495055,0.588286853 Z M18.7736442,6.04741036 C18.7715048,5.64756972 18.4325242,5.30752988 18.0333227,5.30482072 C17.6258011,5.30187251 17.2806004,5.64816733 17.2833341,6.05713147 C17.2862263,6.46505976 17.6153021,6.79211155 18.0233783,6.79266932 C18.443776,6.79350598 18.7760213,6.46318725 18.7736442,6.04741036 Z M3.51028724,3.91239044 C3.51028724,4.28788845 3.80089295,4.58250996 4.1718461,4.58306773 C4.54759314,4.58358566 4.83907048,4.28737052 4.83772343,3.90645418 C4.83637638,3.53697211 4.54525562,3.24796813 4.1756099,3.24908367 C3.79546514,3.24984064 3.51048533,3.53394422 3.51028724,3.91239044 Z M10.4597059,19.3992829 C10.462915,19.0865339 10.2070156,18.8289641 9.89248,18.8278486 C9.56962438,18.8268526 9.31606248,19.0784462 9.31689448,19.3987649 C9.31772648,19.714741 9.56998095,19.9650598 9.88717105,19.9650598 C10.2040838,19.9653386 10.4569722,19.7155378 10.4597059,19.3992829 Z M19.3333425,10.5131076 C19.031168,10.5109163 18.7690484,10.774502 18.7714651,11.0780876 C18.77408,11.3780876 19.0231253,11.6243825 19.3247055,11.6249801 C19.6408655,11.6255777 19.8779855,11.3914741 19.8787383,11.0772908 C19.8796099,10.7663745 19.6368244,10.515259 19.3333425,10.5131076 Z M6.06159543,0.034940239 C5.79519695,0.0338645418 5.5895741,0.238486056 5.5895741,0.505059761 C5.5895741,0.769960159 5.79733638,0.975936255 6.06349714,0.974581673 C6.32181333,0.973227092 6.52422705,0.766135458 6.52422705,0.50310757 C6.52426667,0.237649402 6.32502248,0.0362948207 6.06159543,0.034940239 Z M20.3876053,7.98828685 C20.1704533,7.98581673 19.9736655,8.1812749 19.9709318,8.40266932 C19.968,8.63163347 20.1574979,8.82219124 20.388675,8.822749 C20.6182674,8.82358566 20.798336,8.64406375 20.7999604,8.41215139 C20.8021394,8.17888446 20.6192975,7.99123506 20.3876053,7.98828685 Z M3.94360076,16.2352191 C3.94463086,16.0135458 3.75457829,15.8227092 3.53069105,15.8205976 C3.30375314,15.8186454 3.11718705,16.0106375 3.11881143,16.2441833 C3.12067352,16.4723506 3.30482286,16.6525896 3.53417752,16.650996 C3.75921371,16.6496016 3.942848,16.4633466 3.94360076,16.2352191 Z" id="Shape" fill="#FFFFFF"></path>
                            <path d="M11.3236785,12.5556175 C11.3242331,13.3270518 11.8166979,14.0088845 12.5150629,14.2405578 C12.8650575,14.3567729 13.2260663,14.4119124 13.5925029,14.4281275 C13.8541074,14.4394821 14.1152762,14.4211155 14.356992,14.2999602 C14.5470446,14.2045418 14.6365836,14.0469323 14.6279863,13.8369323 C14.619389,13.6255378 14.5252541,13.4674502 14.3241874,13.3833068 C14.2542994,13.3541036 14.1833417,13.3303187 14.1091352,13.3173705 C13.8873478,13.2775697 13.6644907,13.2440637 13.4438126,13.2000797 C13.0795947,13.1271315 12.9268632,12.9332669 12.9220297,12.5629084 C12.9177905,12.2352988 13.0061806,11.9262948 13.1064168,11.6205976 C13.2897737,11.0610359 13.5369966,10.5277291 13.7739185,9.99003984 C14.0026392,9.47079681 14.2424137,8.95581673 14.4039802,8.4089243 C14.4929646,8.10860558 14.5354362,7.80749004 14.4545341,7.49689243 C14.3313981,7.02545817 14.0504594,6.70948207 13.5660373,6.61860558 C13.1225417,6.53561753 12.6811063,6.5261753 12.2800427,6.79215139 C12.146685,6.88027888 12.0184381,6.85920319 11.9026712,6.75645418 C11.8142415,6.67832669 11.7300907,6.59561753 11.643523,6.51533865 C11.2344168,6.13553785 10.6935375,6.11689243 10.2543208,6.46374502 C10.0771048,6.60374502 9.92797867,6.77733068 9.73546971,6.89896414 C9.56344381,7.00760956 9.38999162,7.03840637 9.19950324,6.93625498 C9.018048,6.8389243 8.83017448,6.75326693 8.64277638,6.66784861 C8.45296152,6.58163347 8.26908952,6.47513944 8.055424,6.45701195 C7.37960229,6.39916335 6.67236267,6.80302789 6.37422933,7.41693227 C6.24194133,7.68860558 6.13393981,7.97083665 6.03152457,8.2549004 C5.55863162,9.56812749 5.17345524,10.9094422 4.77480838,12.2461355 C4.59628495,12.8443825 4.80697905,13.4330677 5.31073524,13.7561753 C5.70375619,14.0080478 6.13409829,14.0703187 6.57961448,13.9356972 C6.940544,13.8264542 7.13820343,13.5343028 7.27635505,13.2060956 C7.73546057,12.1172908 8.14892495,11.01 8.58655695,9.9125498 C8.70699886,9.61055777 8.82359771,9.30729084 8.95136914,9.00856574 C9.08036876,8.70693227 9.45104457,8.60418327 9.67093029,8.80422311 C9.80515962,8.92633466 9.84053943,9.08888446 9.8273859,9.26266932 C9.81292495,9.44840637 9.74137295,9.61972112 9.67417905,9.79031873 C9.38943695,10.5142231 9.09942552,11.2360159 8.81341562,11.9593625 C8.75561143,12.1056574 8.69297371,12.250757 8.66741943,12.4077689 C8.62364038,12.6773705 8.72977981,12.9163347 8.94907124,13.0114343 C9.1728,13.1085259 9.40504686,13.124741 9.63697676,13.0400797 C9.90686171,12.9417131 10.0681509,12.729243 10.1923962,12.483745 C10.6192914,11.6407171 11.0428983,10.7956175 11.4695162,9.9525498 C11.6665813,9.56306773 11.8670933,9.17541833 12.0683977,8.78824701 C12.1431985,8.64474104 12.2308358,8.50876494 12.3705722,8.41956175 C12.4967192,8.33928287 12.6326522,8.33330677 12.7619688,8.40633466 C12.8881554,8.47741036 12.8965943,8.60721116 12.8912853,8.73533865 C12.8883931,8.80422311 12.8692175,8.87155378 12.8428709,8.93561753 C12.7875627,9.06884462 12.7358994,9.20406375 12.6745691,9.33466135 C12.319741,10.0852988 11.9595246,10.8330279 11.6078659,11.5852988 C11.459651,11.9027888 11.3053745,12.2217928 11.3236785,12.5556175 Z" id="Shape"></path>
                        </g>
                    </g>
                </g>
            </g>
        </g>
    </g>
</svg>