<?xml version="1.0" encoding="UTF-8"?>
<svg width="49px" height="49px" viewBox="0 0 49 49" version="1.1" xmlns="http://www.w3.org/2000/svg" xmlns:xlink="http://www.w3.org/1999/xlink">
    <!-- Generator: Sketch 43.2 (39069) - http://www.bohemiancoding.com/sketch -->
    <title>iconmonstr-calendar-4-1</title>
    <desc>Created with Sketch.</desc>
    <defs></defs>
    <g id="Home" stroke="none" stroke-width="1" fill="none" fill-rule="evenodd">
        <g transform="translate(-58.000000, -565.000000)" id="Next-Meetups" fill-rule="nonzero" fill="#13C980">
            <g transform="translate(38.000000, 496.000000)">
                <g id="meetup" transform="translate(0.000000, 52.000000)">
                    <g id="iconmonstr-calendar-4-1" transform="translate(20.018450, 17.569444)">
                        <path d="M40.0369004,39.9305556 L32.0295203,39.9305556 L32.0295203,31.9444444 L40.0369004,31.9444444 L40.0369004,39.9305556 Z M28.0258303,19.9652778 L20.0184502,19.9652778 L20.0184502,27.9513889 L28.0258303,27.9513889 L28.0258303,19.9652778 Z M40.0369004,19.9652778 L32.0295203,19.9652778 L32.0295203,27.9513889 L40.0369004,27.9513889 L40.0369004,19.9652778 Z M16.0147601,31.9444444 L8.00738007,31.9444444 L8.00738007,39.9305556 L16.0147601,39.9305556 L16.0147601,31.9444444 Z M28.0258303,31.9444444 L20.0184502,31.9444444 L20.0184502,39.9305556 L28.0258303,39.9305556 L28.0258303,31.9444444 Z M16.0147601,19.9652778 L8.00738007,19.9652778 L8.00738007,27.9513889 L16.0147601,27.9513889 L16.0147601,19.9652778 Z M48.0442804,3.99305556 L48.0442804,47.9166667 L0,47.9166667 L0,3.99305556 L6.00553506,3.99305556 L6.00553506,5.98958333 C6.00553506,8.19175347 7.80119004,9.98263889 10.0092251,9.98263889 C12.2172601,9.98263889 14.0129151,8.19175347 14.0129151,5.98958333 L14.0129151,3.99305556 L34.0313653,3.99305556 L34.0313653,5.98958333 C34.0313653,8.19175347 35.8270203,9.98263889 38.0350554,9.98263889 C40.2430904,9.98263889 42.0387454,8.19175347 42.0387454,5.98958333 L42.0387454,3.99305556 L48.0442804,3.99305556 Z M44.0405904,15.9722222 L4.00369004,15.9722222 L4.00369004,43.9236111 L44.0405904,43.9236111 L44.0405904,15.9722222 Z M40.0369004,1.99652778 C40.0369004,0.894444444 39.1420756,0 38.0350554,0 C36.9280351,0 36.0332103,0.894444444 36.0332103,1.99652778 L36.0332103,5.98958333 C36.0332103,7.09166667 36.9280351,7.98611111 38.0350554,7.98611111 C39.1420756,7.98611111 40.0369004,7.09166667 40.0369004,5.98958333 L40.0369004,1.99652778 Z M12.0110701,5.98958333 C12.0110701,7.09166667 11.1162454,7.98611111 10.0092251,7.98611111 C8.9022048,7.98611111 8.00738007,7.09166667 8.00738007,5.98958333 L8.00738007,1.99652778 C8.00738007,0.894444444 8.9022048,0 10.0092251,0 C11.1162454,0 12.0110701,0.894444444 12.0110701,1.99652778 L12.0110701,5.98958333 Z" id="Shape"></path>
                    </g>
                </g>
            </g>
        </g>
    </g>
</svg>